<?xml version="1.0" encoding="UTF-8"?>
<svg width="600px" height="548px" viewBox="0 0 600 548" version="1.1" xmlns="http://www.w3.org/2000/svg" xmlns:xlink="http://www.w3.org/1999/xlink">
    <!-- Generator: Sketch 60.1 (88133) - https://sketch.com -->
    <title>Group 40</title>
    <desc>Created with Sketch.</desc>
    <defs>
        <linearGradient x1="52.005758%" y1="17.9829667%" x2="48.1084896%" y2="146.648909%" id="linearGradient-1">
            <stop stop-color="#000000" offset="1%"></stop>
            <stop stop-color="#000000" stop-opacity="0.69" offset="13%"></stop>
            <stop stop-color="#000000" stop-opacity="0" offset="100%"></stop>
        </linearGradient>
        <linearGradient x1="114.726249%" y1="-35.4749359%" x2="31.7436766%" y2="74.7924623%" id="linearGradient-2">
            <stop stop-color="#000000" offset="1%"></stop>
            <stop stop-color="#000000" stop-opacity="0" offset="100%"></stop>
        </linearGradient>
        <linearGradient x1="56.9120098%" y1="177.586256%" x2="44.5683868%" y2="-3.94607483%" id="linearGradient-3">
            <stop stop-color="#000000" offset="1%"></stop>
            <stop stop-color="#000000" stop-opacity="0" offset="100%"></stop>
        </linearGradient>
    </defs>
    <g id="Home" stroke="none" stroke-width="1" fill="none" fill-rule="evenodd">
        <g id="Green-(current)" transform="translate(-860.000000, -212.000000)">
            <g id="Group-40" transform="translate(860.000000, 212.000000)">
                <path d="M24.852071,318.238978 L24.852071,461.138386 C-13.759138,419.220805 -2.31877977,365.930113 24.852071,318.238978 Z" id="Path" fill="#FFFFFF" fill-rule="nonzero" opacity="0.18"></path>
                <path d="M595.747504,302.647318 C586.853735,325.138447 564.548226,338.765611 547.187209,355.610299 C512.433583,389.299676 495.783437,438.272295 466.479811,476.172844 C459.57313,485.248479 451.708284,493.55567 443.021113,500.950939 C408.962559,529.561674 362.99299,539.182704 318.745305,544.29289 C272.718201,549.796409 226.092852,547.562649 180.805003,537.684346 C137.846481,528.206024 96.8155441,511.501669 59.4674556,488.285878 L251.149502,380.277989 L296.187042,354.900551 L298.477622,353.607232 L298.477622,12.754647 L190.47283,59.94501 C197.307601,50.4694279 205.013136,41.6513488 213.489209,33.6054692 C245.683704,3.37019987 297.640376,-11.7868652 334.479219,12.6442418 C356.595163,27.2177362 368.743136,52.5163132 387.162557,71.4744737 C423.495894,108.917629 479.95474,118.175899 523.491555,147.023217 C561.002193,172.115684 587.397446,210.663345 597.200837,254.668346 C600.613011,270.535159 601.734606,287.553342 595.747504,302.647318 Z" id="Path" fill="#E8EEC1" fill-rule="nonzero" opacity="0.399999976"></path>
                <path d="M466.863905,476.292758 C459.956179,485.353077 452.090143,493.646251 443.401658,501.02904 C409.337951,529.591494 363.361427,539.196289 319.107047,544.297851 C273.072979,549.792084 226.440575,547.562092 181.145874,537.70046 C178.225664,532.462273 176.671943,526.577203 176.627219,520.585031 C176.627219,480.40235 249.083694,447.824777 338.461426,447.824777 C390.773547,447.824777 437.287254,458.972637 466.863905,476.292758 Z" id="Path" fill="#D7DF23" fill-rule="nonzero" opacity="0.299999982"></path>
                <path d="M340.914699,133.667813 C330.346276,133.050211 320.466086,138.946581 315.958926,148.561098 C311.065329,159.506005 314.243807,172.993667 308.547723,183.543735 C305.857031,188.518693 301.466955,192.293343 297.281434,196.083787 C296.91956,196.35622 296.645871,196.729821 296.494682,197.157746 C296.274392,197.947421 296.903793,198.737097 297.501725,199.258283 C300.658969,201.872226 304.185341,204.001235 307.965526,205.575689 C311.327772,207.466947 315.047947,208.629114 318.885643,208.987089 C321.209709,208.939904 323.519149,208.605727 325.761856,207.992097 C329.569735,207.091867 331.835581,211.671987 335.64346,210.708582 C339.723734,209.857587 343.864287,209.329513 348.026937,209.12923 C351.173944,208.923915 353.848901,203.364597 356.964439,202.985553 C363.46301,202.195877 369.143359,198.373846 374.556213,194.66237 C370.118932,192.05644 367.727206,187.018309 366.122232,182.027558 C363.810078,174.886228 362.626104,167.425584 362.613318,159.916636 C362.613318,155.178581 363.085369,150.077276 361.228635,145.702472 C359.587765,141.908526 356.445952,138.972519 352.558628,137.600398 C348.735013,136.163189 345.037279,133.983683 340.914699,133.667813 Z" id="Path" fill="#303030" fill-rule="nonzero"></path>
                <path d="M356.672071,166.076971 C356.680791,162.70333 356.475976,159.332545 356.058864,155.98501 C355.616755,152.594891 353.802162,149.538036 351.043149,147.535559 C347.190954,145.087588 342.175238,146.08257 337.835622,147.535559 C335.667454,148.168438 333.590326,149.081566 331.656387,150.252018 C326.766457,153.410691 324.156399,159.254237 322.867093,164.987229 C321.577786,170.720221 321.294768,176.642733 319.722443,182.359931 C318.150119,188.07713 315.00547,193.620601 309.643843,196.10016 C307.577922,196.821144 305.556534,197.664947 303.590393,198.627098 C303.109667,198.83271 302.762028,199.264757 302.662722,199.780014 C302.670354,200.205498 302.839016,200.612092 303.134419,200.917137 C306.404854,205.023412 312.128116,206.097361 317.28534,206.539575 C322.75703,207.013376 328.291612,207.139723 333.747579,207.250276 C338.102918,207.345037 342.615489,207.424003 346.656363,205.7657 C350.697237,204.107396 353.904779,200.917137 358.039993,199.685254 C360.241247,199.021933 364.03055,198.785032 364.706649,196.021193 C365.304133,193.620601 362.631181,189.609086 361.797849,187.461189 C358.998232,180.642379 357.269064,173.428468 356.672071,166.076971 L356.672071,166.076971 Z" id="Path" fill="url(#linearGradient-1)" fill-rule="nonzero"></path>
                <path d="M364.020533,507.19169 C365.764595,509.564888 368.036258,511.476298 370.646305,512.76671 C375.726059,515.137256 381.263499,516.296278 386.842637,516.156708 C389.113883,516.156708 391.541766,516.028177 393.249116,514.453676 C394.68813,512.945937 395.278601,510.789834 394.815492,508.734059 C394.337401,506.714165 393.342463,504.86172 391.93336,503.367901 C386.310069,496.941365 377.679335,494.708143 369.659488,493.503168 C366.370098,493.005111 363.112035,492.26606 361.686632,496.025583 C360.417868,499.447714 362.078227,504.396147 364.020533,507.19169 Z" id="Path" fill="#303030" fill-rule="nonzero"></path>
                <path d="M287.930001,500.83954 C286.524255,502.154435 285.507425,503.838027 284.992845,505.702668 C284.367918,509.17633 287.43006,512.476309 290.835912,513.249989 C294.241764,514.023668 297.788225,512.918412 301.022222,511.544736 C305.742872,509.534567 310.223858,506.992164 314.380037,503.965836 C315.514406,503.223521 316.513355,502.288728 317.332817,501.202696 C319.145105,498.534291 318.72328,494.981682 318.129599,491.808018 C318.127532,491.068079 317.769318,490.375439 317.169369,489.951321 C316.56942,489.527203 315.802787,489.424663 315.114326,489.676452 C311.989691,489.850135 308.740071,490.118554 305.552943,490.134344 C303.759541,489.925914 301.946508,489.963092 300.162948,490.244869 C295.522865,491.49223 291.148376,497.334299 287.930001,500.83954 Z" id="Path" fill="#303030" fill-rule="nonzero"></path>
                <polygon id="Path" fill="#F2F2F2" fill-rule="nonzero" points="299.112426 12.0259604 299.112426 353.453615 296.820997 354.749056 251.766761 380.152335 60.013655 488.353242 24.852071 508.179807 24.852071 132.028018 191.067595 59.3095515"></polygon>
                <polygon id="Path" fill="#D7DF23" fill-rule="nonzero" opacity="0.56" points="197.04142 190.775974 168.639053 204.629511 168.639053 158.128018 197.04142 144.274481"></polygon>
                <polygon id="Path" fill="#D7DF23" fill-rule="nonzero" opacity="0.56" points="244.970414 245.80556 216.568047 259.659097 216.568047 213.157604 244.970414 199.304067"></polygon>
                <path d="M298.366681,275.467187 C298.033475,296.69357 296.779989,317.967334 298.366681,339.130544 C298.73162,344.326586 299.001358,350.185952 296.87519,354.639703 L251.638597,380.051348 C250.610553,380.565533 249.377595,380.448944 248.465213,379.751272 C248.036077,379.155442 247.828525,378.429584 247.878137,377.698125 C247.132392,363.373475 249.464829,349.096205 251.146723,334.850522 C253.637829,313.102955 254.431175,290.928965 250.13124,269.46568 C249.224291,263.940104 247.401211,258.602939 244.736486,253.672239 C241.309231,247.828667 236.089014,243.280156 231.551075,238.226255 C224.966302,230.866512 219.793686,222.432815 214.652804,213.935944 C211.066879,208.044991 192.010707,184.623319 199.769631,179.190375 C211.876092,170.614537 216.239496,195.64714 218.191127,201.301192 C220.396629,207.713328 224.760032,213.130478 229.40904,218.073825 C240.515885,229.934699 253.68543,239.758219 266.966043,249.234283 C269.06593,246.997804 270.590307,244.288308 271.408781,241.337563 C273.757086,235.020187 276.168858,228.292181 274.947105,221.627349 C274.044691,217.978452 272.752093,214.436298 271.091443,211.061538 C266.966043,201.127464 265.28415,189.882534 268.282998,179.474657 C271.281846,169.06678 279.469177,160.017139 290.004813,157.67971 C290.824089,157.410968 291.708378,157.410968 292.527654,157.67971 C293.146464,157.979785 296.065977,157.348048 299.112426,156.700517 L299.112426,258.394478 C298.73162,264.222257 298.446015,269.907896 298.366681,275.467187 Z" id="Path" fill="#CBCBCB" fill-rule="nonzero" opacity="0.337588356"></path>
                <path d="M321.107693,176.556617 C320.885171,178.044807 318.946047,180.372083 319.677192,181.701955 C321.266638,184.440858 323.253445,185.976544 324.779313,188.715447 C325.923713,190.741919 327.958204,188.414643 328.65756,190.646928 C329.793528,194.716638 330.507218,198.891718 330.787417,203.106563 C330.787417,205.307184 330.549,207.697788 331.820557,209.439287 C332.777288,210.68381 334.199399,211.489162 335.762382,211.671572 C337.308965,211.827416 338.871219,211.671268 340.355879,211.21245 C342.19551,210.901858 343.805301,209.802021 344.758644,208.204406 C345.18614,207.002368 345.322296,205.716694 345.156005,204.452267 C345.026472,202.856295 345.171609,201.250011 345.585155,199.702724 C346.012697,198.123282 347.061234,196.782107 348.493841,195.982248 C349.510581,195.564001 350.580228,195.286989 351.672732,195.158994 C355.036643,194.592943 358.098666,192.880491 360.33521,190.31446 C363.148529,186.863125 363.752518,182.161078 363.879674,177.728171 C364.040079,171.489904 363.447743,165.255023 362.115389,159.157457 C360.525944,152.09647 358.01462,146.159541 351.863465,142.328243 C344.949377,138.006159 335.349126,139.605172 329.08671,144.829669 C322.824295,150.054166 319.550037,158.223381 318.850681,166.329267 C318.485108,170.208061 318.262586,173.849377 321.107693,176.556617 Z" id="Path" fill="#FFFFFF" fill-rule="nonzero"></path>
                <path d="M328.647795,180.862451 C328.221154,179.938223 327.687464,179.065668 327.057355,178.262161 C326.618811,177.622954 325.956227,177.165586 325.19654,176.977681 C324.160146,176.938216 323.221239,177.575967 322.890402,178.544121 C322.574191,179.47741 322.503062,180.474362 322.683644,181.442034 C322.790464,182.900195 323.207723,184.319882 323.908283,185.608764 C324.631118,186.8988 325.926434,187.780241 327.407252,187.989752 C327.73456,187.974168 328.061108,188.033132 328.361516,188.162061 C328.742289,188.434407 328.981057,188.858851 329.013596,189.321226 C329.299876,190.433398 329.252162,192.046831 328.091141,192.203475 C327.463437,192.181948 326.879089,191.882673 326.500701,191.388927 C324.550213,189.680049 322.805224,187.756415 321.299961,185.655757 C319.407008,182.397779 318.064142,178.858498 317.323861,175.176275 C316.862633,173.406198 316.465023,171.354162 317.61014,169.913037 C318.161414,169.300037 318.846553,168.818036 319.614095,168.503242 C322.079277,167.344076 328.615986,164.446163 329.236258,168.722543 C329.71339,172.481999 326.802884,177.056003 328.647795,180.862451 Z" id="Path" fill="#303030" fill-rule="nonzero"></path>
                <path d="M347.75528,156.977618 C343.934503,162.128648 338.689081,166.017638 332.682657,168.152558 C330.664268,168.986365 328.538371,169.523946 326.369517,169.748978 C324.924887,169.717764 323.482232,169.873344 322.076582,170.21194 C320.407232,170.953997 318.947786,172.106432 317.830995,173.564422 C316.394755,169.924584 314.942733,166.157033 315.100561,162.245804 C315.325301,159.623131 315.959204,157.052997 316.978721,154.63088 C318.920011,149.45848 321.445267,144.222222 325.864466,140.949561 C329.366734,138.537136 333.496155,137.22631 337.73317,137.182009 C340.808245,137.123061 343.881127,137.385198 346.903006,137.964255 C350.154273,138.554931 350.754022,138.985964 351.290639,142.370375 C351.990788,147.516999 350.726643,152.74014 347.75528,156.977618 L347.75528,156.977618 Z" id="Path" fill="#303030" fill-rule="nonzero"></path>
                <path d="M372.90184,249.213782 C371.200647,251.668143 369.963428,254.414141 369.251591,257.315485 C369.093572,258.106666 368.91975,258.897848 368.761731,259.673206 C367.392229,266.24529 366.033262,272.806825 364.684829,279.357811 C363.894732,283.092189 362.915012,287.14304 359.865236,289.421644 C358.136841,290.554747 356.186473,291.304674 354.144933,291.62113 C352.296105,292.000897 350.415674,292.333193 348.535243,292.602195 C339.06718,293.919121 329.442496,293.57644 320.091744,291.589482 C317.816264,291.09895 315.351161,290.371062 314.007996,288.424755 C312.664831,286.478448 312.886058,283.930842 312.680633,281.604767 C311.811526,271.572581 302.598993,262.173341 306.107024,252.72663 C307.118348,250.052435 309.014582,246.903531 308.84076,244.371749 C308.800788,243.39601 308.360569,242.480014 307.624011,241.839968 C306.700671,241.129007 305.6141,240.66114 304.463622,240.479135 C296.009582,238.390415 287.444929,236.349166 279.591363,232.567316 C272.653833,228.988212 266.07626,224.749047 259.949547,219.908407 L236.610076,202.597348 C235.050403,201.741121 233.908479,200.283169 233.449687,198.56232 C233.426041,198.378471 233.426041,198.192343 233.449687,198.008493 C233.563861,196.873585 233.960476,195.785478 234.603229,194.843766 L234.698041,194.653882 C235.187901,193.799406 235.693563,192.929106 236.278235,192.090453 C238.300884,188.925725 240.797591,186.077471 244.353028,185.302113 C249.551868,184.178634 254.324055,188.023778 258.448362,191.394213 C269.320099,200.239626 281.092547,210.17687 294.792832,212.629534 C302.737217,213.798234 310.772128,214.232577 318.795985,213.927072 C319.757436,214.03064 320.725757,213.807732 321.545523,213.294126 C323.046708,212.059883 322.351422,209.575572 323.346945,207.91409 C324.342467,206.252608 327.060401,205.99943 329.24107,206.110195 C335.307744,206.369855 341.384101,205.929165 347.350097,204.796833 C346.986652,203.356882 349.151519,204.021475 350.38407,204.796833 C351.509859,205.821831 352.094132,207.313773 351.964265,208.831861 C351.827617,210.324037 352.123907,211.824 352.81757,213.151714 C353.976312,214.398207 355.537984,215.194128 357.226312,215.39867 C362.213817,216.602354 366.854696,218.947645 370.78438,222.250305 C373.012373,224.184865 374.838008,226.539943 376.15704,229.181058 C377.12535,231.11665 377.755982,233.203804 378.02167,235.352276 C378.653747,240.906373 375.635576,244.878106 372.90184,249.213782 Z" id="Path" fill="#D7DF23" fill-rule="nonzero"></path>
                <path d="M308.716803,243.398633 L308.31975,243.682765 C308.279575,242.709402 307.837124,241.795637 307.09683,241.157149 C306.168808,240.44792 305.076726,239.981193 303.920413,239.799631 C295.423497,237.715997 286.815407,235.67972 278.92201,231.907081 C271.949296,228.336694 265.338364,224.107853 259.180578,219.279001 L235.73862,201.978532 C234.171037,201.12439 233.023322,199.669989 232.562203,197.953331 C232.538437,197.769929 232.538437,197.584255 232.562203,197.400853 C232.863936,196.319657 233.25162,195.263995 233.721595,194.243833 L233.816888,194.054412 C233.844155,192.9799 234.450865,192.003032 235.405096,191.497226 C237.676235,190.297558 243.663781,194.985733 257.338256,207.503317 C280.986681,229.113118 304.365111,225.608826 308.716803,232.349064 C313.068494,239.089301 308.716803,243.398633 308.716803,243.398633 Z" id="Path" fill="url(#linearGradient-2)" fill-rule="nonzero" opacity="0.5"></path>
                <path d="M424.935236,292.030433 C424.307677,295.336826 423.449776,298.595595 422.367767,301.783058 C422.367767,301.908695 422.289011,302.050038 422.241757,302.19138 C421.925872,303.45947 421.266565,304.616632 420.335844,305.536483 C418.730392,306.593159 416.761852,306.950531 414.885879,306.52588 C406.559178,305.527555 398.821114,301.733671 392.944255,295.768154 C390.673602,293.374323 388.568582,290.829543 386.643717,288.15137 C379.886391,279.089753 372.955799,269.651223 368.356406,259.411753 C365.763192,253.848844 364.041995,247.921938 363.25297,241.838184 C363.25297,241.319928 363.142711,240.754559 363.095457,240.142075 C362.827684,236.215898 363.095457,230.71925 366.450493,228.646228 C369.080968,226.965824 372.751031,227.75106 375.759538,229.337235 C377.139297,230.035207 378.399303,230.946934 379.492607,232.038445 C383.083913,235.713347 384.848064,240.754559 386.596463,245.591609 C389.872743,254.590407 393.59006,263.542091 399.32355,271.190285 C405.057039,278.838478 413.011469,285.230294 422.336265,287.413249 C423.013454,287.516374 423.659124,287.768513 424.226426,288.15137 C425.114677,289.237446 425.382256,290.70181 424.935236,292.030433 Z" id="Path" fill="#D7DF23" fill-rule="nonzero"></path>
                <path d="M416.513096,301.858891 C416.513096,303.667836 418.656073,305.952819 420.247549,305.111818 C421.161466,304.63578 422.500827,302.081042 422.485207,302.144514 C422.169067,303.425784 421.509516,304.594973 420.57845,305.524385 C418.972403,306.592043 417.003133,306.95313 415.126464,306.524065 C406.796675,305.515364 399.055742,301.682048 393.176704,295.654527 C390.905209,293.235816 388.799408,290.664586 386.87383,287.958577 C380.113997,278.802777 373.180836,269.266147 368.579738,258.920251 C367.214115,265.510735 365.858997,272.09064 364.514384,278.659966 C363.726524,282.404799 362.749579,286.466991 359.708442,288.751974 C357.984942,289.88825 356.040099,290.640276 354.004341,290.957618 C352.16075,291.338448 350.285645,291.671675 348.41054,291.94143 C347.863943,291.290563 347.465897,290.526794 347.244508,289.704051 C346.109991,285.451443 349.986259,281.770082 352.491651,278.136324 C356.052775,273.058584 357.218807,266.695541 357.691522,260.491177 C358.164238,254.286813 358.101209,248.034846 359.55087,242.005029 C359.683709,241.23892 360.015308,240.521792 360.512059,239.926329 C361.279206,239.23962 362.368558,239.054731 363.316838,239.450291 C364.234918,239.741569 365.090238,240.204535 365.837987,240.814934 C368.452258,243.036862 370.762433,245.598051 372.70812,248.431544 C375.497142,252.350925 377.892234,256.667004 380.586713,260.649856 C387.913804,271.519394 391.7428,280.722798 401.449227,289.497767 C405.309737,292.988714 411.927755,296.067094 416.402796,298.494888 C417.033083,298.812247 416.465824,300.764003 416.513096,301.858891 Z" id="Path" fill="url(#linearGradient-3)" fill-rule="nonzero" opacity="0.5"></path>
                <path d="M242.307692,184.770974 C239.486216,184.610664 237.366123,182.254111 235.564841,180.057867 L228.24813,171.112583 C227.193246,169.61401 225.814399,168.375325 224.215172,167.489583 C223.993944,167.35945 223.731613,167.319304 223.481907,167.377366 C223.228639,167.5276 223.049445,167.77757 222.98775,168.066698 C222.573385,169.331928 222.40032,170.664471 222.477653,171.994287 C222.559102,172.392941 222.496952,172.807733 222.302306,173.164548 C221.903777,173.510888 221.360856,173.636888 220.851717,173.501199 L210.872935,172.443154 C209.227195,172.558435 207.579786,172.243651 206.090771,171.529389 C204.292029,170.799318 202.262825,170.916939 200.559401,171.850008 C198.646536,173.260734 198.550892,176.114247 199.124752,178.438739 C201.114719,186.083819 207.627703,191.674288 215.447872,192.44981 C219.528651,192.77043 223.625372,191.712385 227.690211,192.225377 C230.304461,192.562027 232.950592,193.539916 235.501079,192.850585 C238.784832,191.904757 240.729578,187.704642 242.307692,184.770974 Z" id="Path" fill="#FFFFFF" fill-rule="nonzero"></path>
                <path d="M320.931053,468.951604 C320.125815,473.029549 318.720594,477.866181 314.315466,478.57745 C312.306128,478.838038 310.286755,478.175807 308.820897,476.775568 C305.757832,474.00952 305.015749,469.9948 304.38419,466.138139 C294.705538,407.229229 295.194996,345.585883 314.836502,289.221737 C329.046595,289.221737 343.682991,289.079483 357.814139,289.047871 C359.019916,288.783006 360.281146,289.05642 361.269444,289.796924 C362.257743,290.537428 362.87531,291.671744 362.96135,292.904532 C380.613443,351.655382 389.376333,414.610624 376.192525,474.499506 C375.055718,479.683869 372.561057,485.927234 367.066488,485.990457 C364.914626,485.950068 362.879539,485.003164 361.461396,483.38247 C358.619377,480.221273 358.050973,476.127522 357.561515,472.128608 C353.866891,441.528219 349.556496,381.813203 339.814688,352.572129 C337.714752,353.773384 326.583512,440.390188 320.931053,468.951604 Z" id="Path" fill="#303030" fill-rule="nonzero"></path>
                <path d="M441.41537,285.408996 C441.587865,285.405559 441.755377,285.466285 441.88474,285.57915 C441.956358,285.736551 441.956358,285.916742 441.88474,286.074143 C441.337142,288.44083 437.75429,289.013165 437.018945,291.317977 C436.972801,291.432182 436.972801,291.559549 437.018945,291.673754 C437.122065,291.827353 437.287684,291.928987 437.472668,291.952187 C440.758253,292.648271 444.090775,291.302509 447.376361,290.606425 C449.9567,290.116063 452.572731,289.831557 455.199182,289.755655 C456.796428,289.600914 458.405149,289.600914 460.002395,289.755655 C460.436856,289.776647 460.853296,289.933753 461.191464,290.204243 C461.547032,290.639891 461.636786,291.231479 461.426148,291.751096 C461.166063,292.269774 460.798199,292.728352 460.346599,293.096859 C457.114669,296.158199 453.57021,298.879762 449.770144,301.217841 C444.640189,304.853501 438.076828,305.885331 432.059276,304.002177 C428.382549,303.213282 424.768406,302.06861 421.107325,301.620022 C420.786886,301.605441 420.472806,301.526494 420.184232,301.387994 C419.893599,301.19905 419.665189,300.930211 419.527115,300.614568 C418.796213,299.130639 418.739311,297.409138 419.370659,295.881195 C420.591019,292.787488 422.499787,291.596411 425.628916,290.76111 C429.149186,289.786592 432.215732,287.667403 435.610837,286.398983 C437.454351,285.671235 439.431788,285.333975 441.41537,285.408996 Z" id="Path" fill="#FFFFFF" fill-rule="nonzero"></path>
                <path d="M361.55264,495.328965 C361.586339,496.403416 361.804626,497.464167 362.198022,498.46516 C363.14728,500.152094 364.663406,501.451432 366.479583,502.134509 C369.93315,503.731688 373.690807,504.571261 377.498307,504.596422 C378.819797,504.760364 380.143489,504.30925 381.087262,503.373306 C381.414666,502.911086 381.610472,502.369254 381.653939,501.805208 C381.712874,499.672396 380.860396,497.614877 379.308525,496.144376 C377.876091,494.576278 376.160319,493.353162 374.712144,491.800746 C373.064388,489.98006 371.905602,487.773822 371.343562,485.387227 C371.264491,484.799575 371.06634,484.234066 370.761144,483.725043 C370.405444,483.303391 369.951462,482.974971 369.438897,482.768504 C367.282376,481.780602 361.914683,480.44772 360.576696,483.144847 C359.947054,484.399325 360.844293,487.378711 360.985962,488.758637 L361.55264,495.328965 Z" id="Path" fill="#FFFFFF" fill-rule="nonzero"></path>
                <path d="M299.828791,490.881429 C298.460159,492.455475 296.936,494.375812 297.433685,496.406332 C298.042556,498.180373 299.715714,499.351723 301.570687,499.302578 C303.374753,499.231802 305.141989,498.764515 306.749715,497.933157 L312.379771,495.524866 C314.05004,495.0232 315.499478,493.956333 316.485667,492.502697 C316.914875,491.511 317.127095,490.437089 317.107773,489.354603 L317.729878,478.005728 C317.807642,476.431681 317.729878,474.590047 316.56343,473.614138 C313.344034,471.032702 308.242769,474.259497 307.231847,477.533514 C305.791176,482.491274 303.260237,487.054627 299.828791,490.881429 Z" id="Path" fill="#FFFFFF" fill-rule="nonzero"></path>
                <path d="M107.39645,271.197558 C115.869899,268.162207 121.254894,259.548802 123.393054,250.776478 C125.531214,242.004155 125.103582,232.866317 125.626243,223.855615 C125.879655,219.501237 126.529022,214.813129 129.585799,211.730102" id="Path" stroke="#C6D76A" stroke-width="0.91"></path>
                <path d="M102.95858,284.511168 L138.056301,269.442569 C148.679022,264.870137 159.729184,260.21914 171.301775,260.564823" id="Path" stroke="#C6D76A" stroke-width="0.91"></path>
                <path d="M102.95858,296.89575 C113.538926,292.65209 126.153348,290.013709 135.897989,295.9898 C142.2052,299.836114 146.021063,306.543323 151.003759,311.994917 C155.986456,317.446511 163.618181,321.912685 170.414201,319.194835" id="Path" stroke="#C6D76A" stroke-width="0.91"></path>
                <path d="M157.100592,197.528919 C159.375762,191.163196 163.015266,185.400649 167.751479,180.665014" id="Path" stroke="#C6D76A" stroke-width="0.91"></path>
                <path d="M197.928994,241.907617 C205.307635,238.392716 212.17388,233.914731 218.343195,228.594008" id="Path" stroke="#C6D76A" stroke-width="0.91"></path>
                <polygon id="Path" fill="#D7DF23" fill-rule="nonzero" opacity="0.56" points="201.47929 330.112849 173.076923 343.978623 173.076923 297.473485 201.47929 283.623594"></polygon>
                <polygon id="Path" fill="#D7DF23" fill-rule="nonzero" opacity="0.56" points="198.816568 269.773703 170.414201 283.623594 170.414201 237.118455 198.816568 223.268564"></polygon>
                <polygon id="Path" fill="#D7DF23" fill-rule="nonzero" opacity="0.56" points="112.721893 315.148622 65.6804734 337.765605 65.6804734 261.861878 112.721893 239.244895"></polygon>
                <polygon id="Path" fill="#D7DF23" fill-rule="nonzero" opacity="0.56" points="157.100592 223.616211 128.698225 237.469747 128.698225 190.968254 157.100592 177.114718"></polygon>
            </g>
        </g>
    </g>
</svg>